<?xml version="1.0" encoding="UTF-8" standalone="no"?><!DOCTYPE svg PUBLIC "-//W3C//DTD SVG 1.1//EN" "http://www.w3.org/Graphics/SVG/1.1/DTD/svg11.dtd"><svg width="100%" height="100%" viewBox="0 0 16 16" version="1.1" xmlns="http://www.w3.org/2000/svg" xmlns:xlink="http://www.w3.org/1999/xlink" xml:space="preserve" xmlns:serif="http://www.serif.com/" style="fill-rule:evenodd;clip-rule:evenodd;stroke-linejoin:round;stroke-miterlimit:2;"><circle id="Outer" cx="8" cy="8" r="7" style="fill:#424242;"/><circle id="Inner" cx="8" cy="8" r="6" style="fill:#fff;"/><path id="Text" d="M5.146,4.36l1.445,0l0,3.877c0,0.615 0.018,1.014 0.054,1.196c0.062,0.293 0.209,0.528 0.442,0.706c0.233,0.177 0.551,0.266 0.955,0.266c0.41,0 0.719,-0.084 0.927,-0.252c0.209,-0.167 0.334,-0.373 0.376,-0.617c0.043,-0.244 0.064,-0.65 0.064,-1.216l0,-3.96l1.445,0l0,3.76c0,0.859 -0.039,1.466 -0.117,1.821c-0.078,0.355 -0.222,0.654 -0.432,0.898c-0.21,0.244 -0.491,0.439 -0.843,0.584c-0.351,0.145 -0.81,0.217 -1.377,0.217c-0.683,0 -1.202,-0.079 -1.555,-0.237c-0.353,-0.158 -0.632,-0.363 -0.837,-0.615c-0.205,-0.252 -0.34,-0.517 -0.405,-0.793c-0.095,-0.411 -0.142,-1.016 -0.142,-1.817l0,-3.818Z" style="fill:#424242;fill-rule:nonzero;"/></svg>